<?xml version="1.0" encoding="iso-8859-1"?>
<!-- Generator: Adobe Illustrator 22.0.1, SVG Export Plug-In . SVG Version: 6.00 Build 0)  -->
<svg version="1.1" id="Capa_1" xmlns="http://www.w3.org/2000/svg" xmlns:xlink="http://www.w3.org/1999/xlink" x="0px" y="0px"
	 viewBox="-49 141 512 512" style="enable-background:new -49 141 512 512;" xml:space="preserve">
<path d="M392.067,333.042L388.338,333c-52,0-98.785,29.068-122.577,74.587c-14.966-6.75-31.194-10.587-48.09-10.587
	c-27.913,0-54.163,9.952-74.945,27.285c-0.401-18.324-2.788-36.573-5.117-52.785c-1.995-13.861-3.909-27.31-4.034-38.509
	l53.93,0.009c8.542,0,16.583-3.333,22.625-9.375l42.667-42.667c12.195-12.195,12.279-31.755,0.638-44.289
	c4.066-6.094,6.003-13.393,5.258-20.846c-0.948-9.573-6.083-18.135-14.094-23.469l-25.896-17.26
	c-12.51-8.344-27.083-12.76-42.135-12.76c-31.375,0-60.865,12.219-83.052,34.406C52.65,237.604,20.494,284.396-2.089,335.823
	c-27.208,61.958-41,107.667-41,135.844c0,16.146-1.396,29.26-4.156,38.99c-5.896,20.781,3.385,42.948,22.563,53.906
	c76.823,43.896,164.198,67.104,252.677,67.104h15.427c54.844,0,109.031-8.792,161.062-26.135l7.469-2.5
	c30.531-10.167,51.052-38.635,51.052-70.823V407.76C463.004,367.594,431.181,334.073,392.067,333.042z"/>
</svg>
