<?xml version="1.0" encoding="iso-8859-1"?>
<!-- Generator: Adobe Illustrator 22.0.1, SVG Export Plug-In . SVG Version: 6.00 Build 0)  -->
<svg version="1.1" id="Capa_1" xmlns="http://www.w3.org/2000/svg" xmlns:xlink="http://www.w3.org/1999/xlink" x="0px" y="0px"
	 viewBox="-67.071 94.489 681.518 581.667" style="enable-background:new -67.071 94.489 681.518 581.667;" xml:space="preserve">
<linearGradient id="SVGID_1_" gradientUnits="userSpaceOnUse" x1="-67.0711" y1="441.489" x2="444.9375" y2="441.489">
	<stop  offset="0" style="stop-color:#DA2128"/>
	<stop  offset="0.5225" style="stop-color:#ED6C30"/>
	<stop  offset="1" style="stop-color:#F05123"/>
</linearGradient>
<path style="fill:url(#SVGID_1_);" d="M374,377.531l-3.729-0.042c-52,0-98.785,29.068-122.577,74.587
	c-14.966-6.75-31.194-10.587-48.09-10.587c-27.913,0-54.163,9.952-74.945,27.285c-0.401-18.324-2.788-36.573-5.117-52.785
	c-1.995-13.861-3.909-27.31-4.034-38.509l53.93,0.009c8.542,0,16.583-3.333,22.625-9.375l42.667-42.667
	c12.195-12.195,12.279-31.755,0.638-44.289c4.066-6.094,6.003-13.393,5.258-20.846c-0.948-9.573-6.083-18.135-14.094-23.469
	l-25.896-17.26c-12.51-8.344-27.083-12.76-42.135-12.76c-31.375,0-60.865,12.219-83.052,34.406
	c-40.865,40.865-73.021,87.656-95.604,139.083c-27.208,61.958-41,107.667-41,135.844c0,16.146-1.396,29.26-4.156,38.99
	c-5.896,20.781,3.385,42.948,22.563,53.906c76.823,43.896,164.198,67.104,252.677,67.104h15.427
	c54.844,0,109.031-8.792,161.062-26.135l7.469-2.5c30.531-10.167,51.052-38.635,51.052-70.823V452.249
	C444.938,412.083,413.115,378.562,374,377.531z M423.604,576.697c0,22.99-14.656,43.323-36.479,50.594l-7.469,2.5
	c-49.833,16.604-101.75,25.031-154.302,25.031h-15.427c-84.771,0-168.49-22.229-242.094-64.292
	c-10.646-6.083-15.833-18.24-12.625-29.563c3.302-11.615,4.969-26.698,4.969-44.813c0-24.854,13.552-68.854,39.208-127.26
	c21.5-49,52.167-93.604,91.146-132.583c18.156-18.156,42.292-28.156,67.969-28.156c10.823,0,21.302,3.177,30.302,9.177l25.896,17.26
	c2.677,1.781,4.385,4.635,4.698,7.823c0.323,3.198-0.802,6.323-3.063,8.594l-34.073,34.073c-3.646,3.646-9.198,4.542-13.802,2.24
	c-3.479-1.74-5.833-4.938-6.458-8.781s0.594-7.625,3.344-10.375l9.802-9.802c4.167-4.167,4.167-10.917,0-15.083
	c-4.167-4.167-10.917-4.167-15.083,0l-9.802,9.802c-7.656,7.656-11.063,18.188-9.323,28.885c1.74,10.688,8.292,19.594,17.979,24.438
	c12.813,6.396,28.281,3.917,38.427-6.24l23.332-23.332c2.883,4.154,2.668,9.832-1.03,13.53l-42.667,42.667
	c-1.99,1.99-4.74,3.125-7.542,3.125l-49.807-0.008c0.669-1.107,1.311-2.246,2.182-3.117c4.167-4.167,4.167-10.917,0-15.083
	c-4.167-4.167-10.917-4.167-15.083,0c-17.448,17.448-13.208,46.938-8.302,81.083c2.542,17.729,5.177,36.063,5.177,54.458
	c0,43.938-33.25,53.292-34.667,53.667c-5.667,1.469-9.104,7.229-7.677,12.917c1.208,4.854,5.552,8.083,10.333,8.083
	c0.854,0,1.729-0.104,2.594-0.323c12.772-3.191,33.703-15.448,44.224-40.589c0.145-0.194,0.382-0.267,0.516-0.474
	c17.792-27.521,47.948-43.948,80.677-43.948c25.479,0,49.479,9.875,67.573,27.813c4.188,4.146,10.948,4.125,15.083-0.063
	c4.146-4.188,4.125-10.938-0.063-15.083c-4.935-4.893-10.345-9.112-15.939-12.999c20.049-38.836,59.803-63.668,104.012-63.668
	l3.156,0.042c27.667,0.729,50.177,24.677,50.177,53.385V576.697z"/>
<g>
	<linearGradient id="SVGID_2_" gradientUnits="userSpaceOnUse" x1="254" y1="182.2445" x2="344" y2="182.2445">
		<stop  offset="0" style="stop-color:#2BC4F3"/>
		<stop  offset="0.5" style="stop-color:#00AEEE"/>
		<stop  offset="1" style="stop-color:#0095DA"/>
	</linearGradient>
	<path style="fill:url(#SVGID_2_);" d="M299,94.489c-24.853,0-45,20.147-45,45c0,21.414,14.963,39.322,35,43.871V260
		c0,5.5,4.5,10,10,10s10-4.5,10-10v-76.64c20.037-4.549,35-22.457,35-43.871C344,114.636,323.853,94.489,299,94.489z M299,164.489
		c-13.807,0-25-11.193-25-25s11.193-25,25-25s25,11.193,25,25S312.807,164.489,299,164.489z"/>
	<linearGradient id="SVGID_3_" gradientUnits="userSpaceOnUse" x1="344.4474" y1="357.4058" x2="614.4474" y2="357.4058">
		<stop  offset="0" style="stop-color:#2BC4F3"/>
		<stop  offset="0.5" style="stop-color:#00AEEE"/>
		<stop  offset="1" style="stop-color:#0095DA"/>
	</linearGradient>
	<path style="fill:url(#SVGID_3_);" d="M569.447,312.406c-21.414,0-39.322,14.963-43.871,35H354.447c-5.5,0-10,4.5-10,10
		s4.5,10,10,10h171.129c4.549,20.037,22.457,35,43.871,35c24.853,0,45-20.147,45-45S594.3,312.406,569.447,312.406z
		 M569.447,382.406c-13.807,0-25-11.193-25-25s11.193-25,25-25s25,11.193,25,25S583.255,382.406,569.447,382.406z"/>
	<linearGradient id="SVGID_4_" gradientUnits="userSpaceOnUse" x1="344.4474" y1="215.9474" x2="589.4474" y2="215.9474">
		<stop  offset="0" style="stop-color:#2BC4F3"/>
		<stop  offset="0.5" style="stop-color:#00AEEE"/>
		<stop  offset="1" style="stop-color:#0095DA"/>
	</linearGradient>
	<path style="fill:url(#SVGID_4_);" d="M354.447,303.406h80c0.012,0,0.023-0.002,0.035-0.002c2.575,0.009,5.154-0.961,7.107-2.915
		l84.853-84.853c0.207-0.207,0.398-0.425,0.584-0.646c5.359,2.252,11.244,3.499,17.422,3.499c24.853,0,45-20.147,45-45
		s-20.147-45-45-45s-45,20.147-45,45c0,11.372,4.227,21.751,11.185,29.673l-80.243,80.244h-75.941c-5.5,0-10,4.5-10,10
		S348.947,303.406,354.447,303.406z M544.447,148.489c13.807,0,25,11.193,25,25s-11.193,25-25,25s-25-11.193-25-25
		S530.64,148.489,544.447,148.489z"/>
</g>
</svg>
